<svg viewBox="0 0 35 35" fill="none" xmlns="http://www.w3.org/2000/svg">
<path d="M29.75 1.75H5.25C3.317 1.75 1.75 3.317 1.75 5.25V29.75C1.75 31.683 3.317 33.25 5.25 33.25H29.75C31.683 33.25 33.25 31.683 33.25 29.75V5.25C33.25 3.317 31.683 1.75 29.75 1.75Z" stroke="currentColor" stroke-width="3.5" stroke-linecap="round" stroke-linejoin="round"/>
<path d="M12.25 15.75C14.183 15.75 15.75 14.183 15.75 12.25C15.75 10.317 14.183 8.75 12.25 8.75C10.317 8.75 8.75 10.317 8.75 12.25C8.75 14.183 10.317 15.75 12.25 15.75Z" stroke="currentColor" stroke-width="3.5" stroke-linecap="round" stroke-linejoin="round"/>
<path d="M33.25 22.75L27.8495 17.3495C27.1932 16.6934 26.3031 16.3248 25.375 16.3248C24.4469 16.3248 23.5568 16.6934 22.9005 17.3495L7 33.25" stroke="currentColor" stroke-width="3.5" stroke-linecap="round" stroke-linejoin="round"/>
</svg>
